<svg width="24" height="24" version="1" xmlns="http://www.w3.org/2000/svg">
 <rect x="2" y="9.5" width="20" height="12" rx="1" ry="1" style="opacity:.2"/>
 <path d="m2 17c0 0.554 0.446 1 1 1h18c0.554 0 1-0.446 1-1v-11c0-0.554-0.446-1-1-1h-10v-1c0-0.554-0.446-1-1-1h-7c-0.554 0-1 0.446-1 1" style="fill:#3f51b5"/>
 <rect x="2" y="8.5" width="20" height="12" rx="1" ry="1" style="opacity:.2"/>
 <rect x="4" y="7" width="16" height="8" rx="1" ry="1" style="fill:#e4e4e4"/>
 <rect x="2" y="9" width="20" height="12" rx="1" ry="1" style="fill:#5c6bc0"/>
 <path d="m3 3c-0.554 0-1 0.446-1 1v0.5c0-0.554 0.446-1 1-1h7c0.554 0 1 0.446 1 1v-0.5c0-0.554-0.446-1-1-1zm8 2v0.5h10c0.554 0 1 0.446 1 1v-0.5c0-0.554-0.446-1-1-1z" style="fill:#ffffff;opacity:.1"/>
 <text x="8.3274384" y="17.099236" style="fill:#202543;font-size:9.01307px;line-height:1.25" xml:space="preserve"><tspan id="tspan17" x="8.3274384" y="17.099236" dy="0" style="fill:#202543;font-family:Cambria">𝛙</tspan></text>
</svg>
