<svg width="24" height="24" version="1" xmlns="http://www.w3.org/2000/svg">
 <rect x="2" y="9.5" width="20" height="12" rx="1" ry="1" style="opacity:.2"/>
 <path d="m2 17c0 0.554 0.446 1 1 1h18c0.554 0 1-0.446 1-1v-11c0-0.554-0.446-1-1-1h-10v-1c0-0.554-0.446-1-1-1h-7c-0.554 0-1 0.446-1 1" style="fill:#60924b"/>
 <rect x="2" y="8.5" width="20" height="12" rx="1" ry="1" style="opacity:.2"/>
 <rect x="4" y="7" width="16" height="8" rx="1" ry="1" style="fill:#e4e4e4"/>
 <rect x="2" y="9" width="20" height="12" rx="1" ry="1" style="fill:#87b158"/>
 <path d="m3 3c-0.554 0-1 0.446-1 1v0.5c0-0.554 0.446-1 1-1h7c0.554 0 1 0.446 1 1v-0.5c0-0.554-0.446-1-1-1zm8 2v0.5h10c0.554 0 1 0.446 1 1v-0.5c0-0.554-0.446-1-1-1z" style="fill:#ffffff;opacity:.1"/>
 <g style="fill:#2f3e1f">
  <path d="m9.1284045 14.005394q0-0.356474-0.017604-0.510506-0.013203-0.158433-0.057212-0.233249-0.039608-0.07922-0.1100228-0.127626-0.066014-0.04841-0.255253-0.114424v-0.286059h1.7119548v2.473313q0 0.470898 0.118825 0.774561 0.123226 0.303663 0.325668 0.462095 0.206843 0.154032 0.53251 0.220046v-5.663975h1.245459v5.663975q0.488501-0.09242 0.730551-0.440091 0.246451-0.352073 0.246451-1.003408v-2.486516h1.711956v0.286059q-0.220046 0.07482-0.299263 0.149631-0.07922 0.07482-0.110022 0.224447-0.03081 0.14523-0.03081 0.501704v1.131034q0 0.492903-0.140829 0.849377-0.140829 0.352073-0.43129 0.633731-0.286059 0.281659-0.72615 0.440091-0.440091 0.154032-0.950597 0.171636v1.87919h-1.2454555v-1.87919q-1.065021-0.052811-1.6591441-0.589722-0.5897224-0.536912-0.5897224-1.478707z" style="fill:#2f3e1f"/>
 </g>
</svg>
