<svg width="64" height="64" version="1" xmlns="http://www.w3.org/2000/svg">
 <rect x="4" y="22" width="56" height="36" rx="2.8" ry="2.8" style="opacity:.2"/>
 <path d="m6.8 7c-1.55 0-2.8 1.25-2.8 2.8v36.4c0 1.55 1.25 2.8 2.8 2.8h50.4c1.55 0 2.8-1.25 2.8-2.8v-30.4c0-1.55-1.25-2.8-2.8-2.8h-27.2v-3.2c0-1.555-1.25-2.8-2.8-2.8z" style="fill:#3f3f3f"/>
 <rect x="4" y="20" width="56" height="36" rx="2.8" ry="2.8" style="opacity:.2"/>
 <rect x="8" y="16" width="48" height="22" rx="2.8" ry="2.8" style="fill:#dcdcdc"/>
 <rect x="4" y="21" width="56" height="36" rx="2.8" ry="2.8" style="fill:#4f4f4f"/>
 <path d="m6.8 7c-1.55 0-2.8 1.25-2.8 2.8v1c0-1.55 1.25-2.8 2.8-2.8h20.4c1.55 0 2.8 1.2458 2.8 2.8v-1c0-1.5542-1.25-2.8-2.8-2.8zm23.2 6v1h27.2c1.545 0 2.8 1.25 2.8 2.8v-1c0-1.55-1.25-2.8-2.8-2.8z" style="fill:#ffffff;opacity:.1"/>
 <text x="22.82645" y="44.243599" style="fill:#c2c2c2;font-size:22.5134px;line-height:1.25" xml:space="preserve"><tspan id="tspan17" x="22.82645" y="44.243599" dy="0" style="fill:#c2c2c2;font-family:Cambria">𝛙</tspan></text>
</svg>
