<svg width="64" height="64" version="1" xmlns="http://www.w3.org/2000/svg">
 <rect x="4" y="22" width="56" height="36" rx="2.8" ry="2.8" style="opacity:.2"/>
 <path d="m6.8 7c-1.55 0-2.8 1.25-2.8 2.8v36.4c0 1.55 1.25 2.8 2.8 2.8h50.4c1.55 0 2.8-1.25 2.8-2.8v-30.4c0-1.55-1.25-2.8-2.8-2.8h-27.2v-3.2c0-1.555-1.25-2.8-2.8-2.8z" style="fill:#cccccc"/>
 <rect x="4" y="20" width="56" height="36" rx="2.8" ry="2.8" style="opacity:.2"/>
 <rect x="8" y="16" width="48" height="22" rx="2.8" ry="2.8" style="fill:#ffffff"/>
 <rect x="4" y="21" width="56" height="36" rx="2.8" ry="2.8" style="fill:#e4e4e4"/>
 <path d="m6.8 7c-1.55 0-2.8 1.25-2.8 2.8v1c0-1.55 1.25-2.8 2.8-2.8h20.4c1.55 0 2.8 1.2458 2.8 2.8v-1c0-1.5542-1.25-2.8-2.8-2.8zm23.2 6v1h27.2c1.545 0 2.8 1.25 2.8 2.8v-1c0-1.55-1.25-2.8-2.8-2.8z" style="fill:#ffffff;opacity:.1"/>
 <g style="fill:#4f4f4f">
  <path d="m24.827153 36.515611q0-0.890423-0.04397-1.275173-0.03298-0.395743-0.142907-0.582622-0.09894-0.197872-0.274822-0.318794-0.164893-0.120921-0.637586-0.285814v-0.714537h4.276226v6.177994q0 1.176237 0.296808 1.934745 0.3078 0.758508 0.813472 1.154251 0.516665 0.384751 1.330138 0.549644v-14.147825h3.110982v14.147825q1.220209-0.230851 1.824817-1.099287 0.6156-0.87943 0.6156-2.506375v-6.210972h4.276227v0.714537q-0.549643 0.186879-0.747515 0.373757-0.197872 0.186879-0.274822 0.560637-0.07695 0.362765-0.07695 1.253187v2.825168q0 1.231201-0.351772 2.121624-0.351772 0.87943-1.077301 1.582973-0.714537 0.703544-1.813824 1.099287-1.099287 0.384751-2.37446 0.428722v4.693956h-3.110984v-4.693956q-2.660275-0.131914-4.144313-1.473044-1.473044-1.341131-1.473044-3.693605z" style="fill:#4f4f4f"/>
 </g>
</svg>
