<svg width="16" height="16" version="1.1" xmlns="http://www.w3.org/2000/svg">
 <defs>
  <style id="current-color-scheme" type="text/css">.ColorScheme-Text { color:#dfdfdf; } .ColorScheme-Highlight { color:#4285f4; }</style>
 </defs>
 <g transform="translate(-21.446368,-4.8703756)">
  <g class="ColorScheme-Text" transform="matrix(1.7500781,0,0,1.7500781,-47.109015,-13.13085)" style="fill:currentColor">
   <path class="ColorScheme-Text" d="m40.899289 13.86587q0-0.356536-0.01761-0.510595-0.0132-0.158461-0.05722-0.233289-0.03962-0.07923-0.110042-0.127649-0.06603-0.04842-0.255298-0.114444v-0.28611h1.712255v2.473747q0 0.47098 0.118846 0.774697 0.123247 0.303716 0.325724 0.462177 0.20688 0.154059 0.532604 0.220084v-5.664968h1.245677v5.664968q0.488587-0.09244 0.73068-0.440169 0.246494-0.352134 0.246494-1.003584v-2.486952h1.712255v0.28611q-0.220084 0.07483-0.299314 0.149657-0.07923 0.07483-0.110042 0.224486-0.03081 0.145256-0.03081 0.501792v1.131233q0 0.492989-0.140854 0.849525-0.140854 0.352135-0.431365 0.633843-0.28611 0.281708-0.726278 0.440168-0.440169 0.154059-0.950764 0.171666v1.879519h-1.245677v-1.879519q-1.065208-0.05282-1.659435-0.589826-0.589826-0.537005-0.589826-1.478966z" style="fill:currentColor"/>
  </g>
 </g>
</svg>
