<svg width="22" height="22" version="1" xmlns="http://www.w3.org/2000/svg">
 <rect x="1" y="8.5" width="20" height="12" rx="1" ry="1" style="opacity:.2"/>
 <path d="m1 16c0 0.554 0.446 1 1 1h18c0.554 0 1-0.446 1-1v-11c0-0.554-0.446-1-1-1h-10v-1c0-0.554-0.446-1-1-1h-7c-0.554 0-1 0.446-1 1" style="fill:#3f3f3f"/>
 <rect x="1" y="7.5" width="20" height="12" rx="1" ry="1" style="opacity:.2"/>
 <rect x="3" y="6" width="16" height="8" rx="1" ry="1" style="fill:#dcdcdc"/>
 <rect x="1" y="8" width="20" height="12" rx="1" ry="1" style="fill:#4f4f4f"/>
 <path d="m2 2c-0.554 0-1 0.446-1 1v0.5c0-0.554 0.446-1 1-1h7c0.554 0 1 0.446 1 1v-0.5c0-0.554-0.446-1-1-1zm8 2v0.5h10c0.554 0 1 0.446 1 1v-0.5c0-0.554-0.446-1-1-1z" style="fill:#ffffff;opacity:.1"/>
 <g style="fill:#c2c2c2">
  <path d="m8.1279008 13.005219q0-0.356536-0.017607-0.510595-0.0132048-0.158461-0.0572217-0.233289-0.0396151-0.079231-0.1100421-0.127649-0.0660253-0.048419-0.2552977-0.114444v-0.28611h1.7122554v2.473747q0 0.47098 0.1188454 0.774697 0.1232472 0.303716 0.3257247 0.462177 0.2068792 0.154059 0.5326042 0.220084v-5.6649684h1.245676v5.6649684q0.488587-0.09244 0.73068-0.440169 0.246494-0.352134 0.246494-1.003584v-2.486952h1.712256v0.28611q-0.220084 0.07483-0.299315 0.149657-0.07923 0.07483-0.110042 0.224486-0.03081 0.145256-0.03081 0.501792v1.131233q0 0.492989-0.140854 0.849525-0.140853 0.352135-0.431365 0.633843-0.286109 0.281708-0.726278 0.440168-0.440168 0.154059-0.950764 0.171666v1.879519h-1.245678v-1.879519q-1.065208-0.05282-1.6594355-0.589826-0.5898257-0.537005-0.5898257-1.478966z" style="fill:#c2c2c2"/>
 </g>
</svg>
