<svg width="22" height="22" version="1" xmlns="http://www.w3.org/2000/svg">
 <rect x="1" y="8.5" width="20" height="12" rx="1" ry="1" style="opacity:.2"/>
 <path d="m1 16c0 0.554 0.446 1 1 1h18c0.554 0 1-0.446 1-1v-11c0-0.554-0.446-1-1-1h-10v-1c0-0.554-0.446-1-1-1h-7c-0.554 0-1 0.446-1 1" style="fill:#4d646f"/>
 <rect x="1" y="7.5" width="20" height="12" rx="1" ry="1" style="opacity:.2"/>
 <rect x="3" y="6" width="16" height="8" rx="1" ry="1" style="fill:#e4e4e4"/>
 <rect x="1" y="8" width="20" height="12" rx="1" ry="1" style="fill:#607d8b"/>
 <path d="m2 2c-0.554 0-1 0.446-1 1v0.5c0-0.554 0.446-1 1-1h7c0.554 0 1 0.446 1 1v-0.5c0-0.554-0.446-1-1-1zm8 2v0.5h10c0.554 0 1 0.446 1 1v-0.5c0-0.554-0.446-1-1-1z" style="fill:#ffffff;opacity:.1"/>
 <text x="7.3267941" y="16.099604" style="fill:#222c31;font-size:9.01465px;line-height:1.25" xml:space="preserve"><tspan id="tspan17" x="7.3267941" y="16.099604" dy="0" style="fill:#222c31;font-family:Cambria">𝛙</tspan></text>
</svg>
