<svg width="48" height="48" version="1" xmlns="http://www.w3.org/2000/svg">
 <rect x="4" y="17" width="40" height="26" rx="2" ry="2" style="opacity:.2"/>
 <path d="m4 34c0 1.108 0.892 2 2 2h36c1.108 0 2-0.892 2-2v-22c0-1.108-0.892-2-2-2h-20v-2c0-1.108-0.892-2-2-2h-14c-1.108 0-2 0.892-2 2" style="fill:#957552"/>
 <rect x="4" y="15" width="40" height="26" rx="2" ry="2" style="opacity:.2"/>
 <rect x="6" y="13" width="36" height="16" rx="2" ry="2" style="fill:#e4e4e4"/>
 <rect x="4" y="16" width="40" height="26" rx="2" ry="2" style="fill:#ae8e6c"/>
 <path d="m6 6c-1.108 0-2 0.892-2 2v1c0-1.108 0.892-2 2-2h14c1.108 0 2 0.892 2 2v-1c0-1.108-0.892-2-2-2zm16 4v1h20c1.108 0 2 0.892 2 2v-1c0-1.108-0.892-2-2-2z" style="fill:#ffffff;opacity:.1"/>
 <text x="16.651184" y="33.200581" style="fill:#3d3226;font-size:18.0352px;line-height:1.25" xml:space="preserve"><tspan id="tspan17" x="16.651184" y="33.200581" dy="0" style="fill:#3d3226;font-family:Cambria">𝛙</tspan></text>
</svg>
