<svg width="48" height="48" version="1" xmlns="http://www.w3.org/2000/svg">
 <rect x="4" y="17" width="40" height="26" rx="2" ry="2" style="opacity:.2"/>
 <path d="m4 34c0 1.108 0.892 2 2 2h36c1.108 0 2-0.892 2-2v-22c0-1.108-0.892-2-2-2h-20v-2c0-1.108-0.892-2-2-2h-14c-1.108 0-2 0.892-2 2" style="fill:#6c9b9a"/>
 <rect x="4" y="15" width="40" height="26" rx="2" ry="2" style="opacity:.2"/>
 <rect x="6" y="13" width="36" height="16" rx="2" ry="2" style="fill:#e4e4e4"/>
 <rect x="4" y="16" width="40" height="26" rx="2" ry="2" style="fill:#82abaa"/>
 <path d="m6 6c-1.108 0-2 0.892-2 2v1c0-1.108 0.892-2 2-2h14c1.108 0 2 0.892 2 2v-1c0-1.108-0.892-2-2-2zm16 4v1h20c1.108 0 2 0.892 2 2v-1c0-1.108-0.892-2-2-2z" style="fill:#ffffff;opacity:.1"/>
 <g style="fill:#4e6766">
  <path d="m18.253922 27.009787q0-0.713306-0.03523-1.021525-0.02642-0.317025-0.114482-0.466731-0.07926-0.158513-0.220156-0.255382-0.132094-0.09687-0.510762-0.228962v-0.572406h3.425631v4.949112q0 0.942269 0.237769 1.5499 0.246575 0.607631 0.651662 0.924656 0.413894 0.308219 1.065556 0.440313v-11.333644h2.492169v11.333644q0.977494-0.184931 1.461838-0.880625 0.49315-0.7045 0.49315-2.007825v-4.975531h3.425631v0.572406q-0.440313 0.149706-0.598825 0.299412-0.158513 0.149707-0.220156 0.449119-0.06164 0.290606-0.06164 1.003913v2.263206q0 0.9863-0.2818 1.699606-0.2818 0.7045-0.863013 1.2681-0.572406 0.5636-1.453031 0.880625-0.880625 0.308219-1.90215 0.343444v3.760269h-2.492169v-3.760269q-2.131112-0.105675-3.319956-1.180038-1.180037-1.074362-1.180037-2.9589z" style="fill:#4e6766"/>
 </g>
</svg>
